The Company Men 2011 DvDScr H264 Feel-Free

Genre:Drama
Language:English
IMDb:http://www.imdb.com/title/tt1172991/
Source:DVDSCR Demedic Thx.


Format : MPEG-4
Format profile : Base Media
Codec ID : isom
File size : 1.16 GiB
Duration : 1h 44mn
Overall bit rate : 1 588 Kbps
Movie name : The Company Men 2011 DvDScr H264 Feel-Free


Video
Format settings, CABAC : Yes
Format settings, ReFrames : 4 frames
Codec ID : avc1
Codec ID/Info : Advanced Video Coding
Duration : 1h 44mn
Bit rate mode : Variable
Bit rate : 1 200 Kbps
Width : 720 pixels
Height : 384 pixels
Display aspect ratio : 1.875
Frame rate mode : Constant
Frame rate : 23.976 fps
Color space : YUV
Chroma subsampling : 4:2:0
Bit depth : 8 bits
Scan type : Progressive
Bits/(Pixel*Frame) : 0.181
Stream size : 897 MiB (75%)


Audio
ID : 2
Format : AAC
Format/Info : Advanced Audio Codec
Format version : Version 4
Format profile : LC
Codec ID : 40
Duration : 1h 44mn
Bit rate mode : Variable
Bit rate : 384 Kbps
Channel(s) : 6 channels
Channel positions : Front: L C R, Side: L R, LFE
Sampling rate : 48.0 KHz
Stream size : 287 MiB (24%)



Plot:
The story centers on a year in the life of three men trying to survive a round of corporate downsizing at a major company - and how that affects them, their families, and their communities.


Screenshots:

 
http://www.leetleech.org/images/07580260817148246278.png
 
http://www.leetleech.org/images/54854682318293345972.png
 
http://www.leetleech.org/images/48305979940097465010.png


ENJOY!